<svg id="rhombus" xmlns="http://www.w3.org/2000/svg" width="14.767" height="17.107" viewBox="0 0 14.767 17.107">
  <path id="Trazado_538" data-name="Trazado 538" d="M17.477,8.33a.425.425,0,0,1,.077.243.419.419,0,0,1-.274.394,24.138,24.138,0,0,0-6.727,7.868.425.425,0,0,1-.294.261.432.432,0,0,1-.106.011.4.4,0,0,1-.349-.19.406.406,0,0,1-.047-.1A24.725,24.725,0,0,0,3.043,8.943a.42.42,0,0,1-.255-.387V8.547a.42.42,0,0,1,.272-.4A23.862,23.862,0,0,0,9.766.327.42.42,0,0,1,10.4.065.418.418,0,0,1,10.59.3a24.5,24.5,0,0,0,6.737,7.9A.417.417,0,0,1,17.477,8.33Z" transform="translate(-2.788)" fill="#ffbf36"/>
</svg>
